<svg width="25" height="8" viewBox="0 0 25 8" fill="none" xmlns="http://www.w3.org/2000/svg">
<g clip-path="url(#clip0_105_178)">
<path d="M5.19922 -1.41406H18.584C22.1826 -1.41406 24.8789 -4.14258 24.8789 -7.54785C24.8789 -11.0498 22.0537 -13.6387 18.3691 -13.6387C17.0479 -16.2383 14.5879 -18 11.333 -18C7.21875 -18 3.87793 -14.8311 3.48047 -10.8242C1.49316 -10.2334 0 -8.51465 0 -6.19434C0 -3.53027 1.94434 -1.41406 5.19922 -1.41406ZM14.083 3.75293L15.4688 1.35742C15.6729 1.00293 15.5654 0.594727 15.2217 0.390625C14.8672 0.186523 14.4697 0.304688 14.2656 0.65918L12.8691 3.07617C12.6758 3.40918 12.7617 3.81738 13.127 4.02148C13.4707 4.22559 13.8896 4.09668 14.083 3.75293ZM5.53223 3.76367L6.91797 1.36816C7.12207 1.01367 7.01465 0.605469 6.6709 0.401367C6.31641 0.197266 5.92969 0.31543 5.71484 0.669922L4.31836 3.08691C4.125 3.41992 4.22168 3.82812 4.57617 4.03223C4.91992 4.22559 5.33887 4.10742 5.53223 3.76367ZM17.4453 6.78223L18.8311 4.37598C19.0459 4.03223 18.9385 3.61328 18.584 3.40918C18.2402 3.21582 17.8428 3.32324 17.6279 3.68848L16.2422 6.10547C16.0381 6.43848 16.1348 6.84668 16.4893 7.05078C16.833 7.24414 17.252 7.11523 17.4453 6.78223ZM8.90527 6.78223L10.291 4.38672C10.4951 4.04297 10.3877 3.62402 10.0439 3.41992C9.68945 3.21582 9.29199 3.33398 9.08789 3.69922L7.69141 6.10547C7.49805 6.43848 7.58398 6.85742 7.94922 7.06152C8.29297 7.25488 8.71191 7.12598 8.90527 6.78223Z" fill="#81CFFA"/>
</g>
<defs>
<clipPath id="clip0_105_178">
<rect width="25" height="8" fill="white"/>
</clipPath>
</defs>
</svg>
