<svg width="29" height="27" viewBox="0 0 29 27" fill="none" xmlns="http://www.w3.org/2000/svg">
<path d="M14.5522 0.928861C15.0141 0.931659 15.4766 0.956055 15.9381 1.00227C18.1814 1.22692 20.3314 1.96027 22.1998 3.13814C24.0683 4.31601 25.5982 5.90249 26.6559 7.75871C27.7136 9.61493 28.2666 11.6843 28.2666 13.7857C28.2666 15.5474 27.8779 17.2903 27.1246 18.9063C26.3713 20.5222 25.2694 21.9767 23.8875 23.1797C22.5054 24.3824 20.8728 25.3079 19.0908 25.8987C17.4585 26.4397 15.7325 26.6893 14.0036 26.6358L14.0033 26.6327L14.0044 26.6322C14.0064 26.6313 14.0082 26.6303 14.0098 26.629C14.0106 26.6282 14.0118 26.6272 14.0125 26.6263C14.0139 26.6236 14.0146 26.6208 14.0146 26.6178C14.0146 26.6148 14.0139 26.612 14.0125 26.6093C13.9357 25.0698 13.8185 23.4978 13.7571 22.7V22.6648C13.7288 22.3464 13.7914 22.0269 13.9386 21.7387C14.0857 21.4505 14.3121 21.2041 14.5945 21.0247C15.4052 20.5089 16.1094 19.86 16.6727 19.1092C17.7613 17.5789 18.0112 14.9766 18.0112 14.6383C18.0237 14.4582 18 14.4346 17.9762 14.4268C17.968 14.4242 17.959 14.4242 17.9507 14.4268C17.9424 14.4294 17.9352 14.4344 17.9301 14.4412C17.6051 14.8472 17.2993 15.0862 16.9964 15.1737L16.9434 15.1855C16.8428 15.2148 16.7388 15.2327 16.6337 15.239C16.6208 15.2399 16.6081 15.2372 16.5971 15.2314C16.5859 15.2256 16.5768 15.2169 16.5708 15.2063C16.5652 15.194 16.5632 15.1804 16.5652 15.167C16.5671 15.1537 16.5729 15.1411 16.582 15.1306C17.0048 14.6847 17.3569 14.1843 17.6273 13.6447C17.9166 13.0943 18.1295 12.5116 18.261 11.9107C18.5395 10.7297 18.527 9.50488 18.2247 8.32904C18.0675 7.73533 17.7925 7.17457 17.4139 6.67598C17.0458 6.18299 16.5621 5.77521 15.9999 5.48384C15.473 5.21913 14.8971 5.05074 14.3028 4.98767H14.2693C14.2322 4.98599 14.1951 4.99159 14.1604 5.00413C14.1257 5.01665 14.0942 5.03583 14.0679 5.06042C14.0416 5.08501 14.0211 5.11448 14.0078 5.14692C13.9944 5.17937 13.9884 5.21407 13.9902 5.24881C13.9874 5.2984 14.0011 5.34758 14.0293 5.38964C14.0576 5.43169 14.099 5.46458 14.1479 5.48384H14.1688C14.6254 5.66716 15.0387 5.93346 15.3845 6.26729C16.1493 7.00241 16.2609 7.92427 16.2219 8.5693C16.1571 9.41207 15.8884 10.23 15.4361 10.9614C15.2284 11.3058 14.9756 11.6246 14.6838 11.9107C14.5112 12.0759 14.3198 12.223 14.113 12.3494C14.0725 12.3576 14.0306 12.3576 13.9902 12.3494C12.8443 12.2998 12.5526 12.3376 11.4654 12.9278C10.5847 13.4031 10.3055 13.7648 10.2302 13.8941C9.59782 13.5414 8.85601 13.4004 8.12666 13.4943C7.39732 13.5883 6.72384 13.9115 6.2169 14.411C5.70997 14.9105 5.39975 15.5564 5.33721 16.2427C5.27468 16.9291 5.46356 17.6147 5.87282 18.1874L5.8128 18.2487C3.66907 18.0598 2.60358 18.5239 1.92964 19.0005C1.92907 18.9999 1.92871 18.9994 1.92858 18.9992C1.16877 17.4056 0.746582 15.6417 0.746582 13.7857C0.746582 8.40099 4.30066 3.78941 9.34314 1.87493L9.33206 1.84952C10.9823 1.2342 12.7403 0.9231 14.509 0.928662L14.5508 0.928605L14.5522 0.928861Z" fill="#8D8D92"/>
<path d="M13.4526 13.7441C13.3479 13.6462 13.2059 13.5912 13.0578 13.5912C12.9098 13.5912 12.7678 13.6462 12.6631 13.7441C12.5584 13.8421 12.4996 13.9749 12.4996 14.1135C12.4996 14.2519 12.5584 14.3848 12.6631 14.4827C12.7678 14.5807 12.9098 14.6357 13.0578 14.6357C13.1315 14.637 13.2047 14.6243 13.273 14.5984C13.3414 14.5727 13.4034 14.5343 13.4556 14.4856C13.5077 14.4368 13.5487 14.3787 13.5763 14.3148C13.6039 14.2508 13.6174 14.1824 13.6161 14.1135C13.6161 13.9749 13.5573 13.8421 13.4526 13.7441Z" fill="#8D8D92"/>
</svg>
