<svg width="29" height="27" viewBox="0 0 29 27" fill="none" xmlns="http://www.w3.org/2000/svg">
<path d="M11.9523 9.70358C11.8623 9.57465 11.7311 9.50907 11.5451 9.50907C11.1928 9.50907 10.9915 9.76846 10.9915 10.2265V10.2386H12.0629V10.2001C12.0629 9.95503 12.0346 9.82531 11.9523 9.70358Z" fill="#8D8D92"/>
<path d="M13.5089 16.7473H13.4679C12.8242 16.7473 12.6022 16.8578 12.6022 17.251C12.6022 17.5089 12.7762 17.6836 13.0119 17.6836C13.1842 17.6836 13.3564 17.5986 13.4944 17.4576L13.5089 16.7473Z" fill="#8D8D92"/>
<path d="M10.1264 15.6441C10.0346 15.5144 9.90437 15.4495 9.71753 15.4495C9.36441 15.4495 9.16554 15.709 9.16554 16.1671V16.179H10.236V16.1406C10.236 15.8956 10.2086 15.7667 10.1264 15.6441Z" fill="#8D8D92"/>
<path d="M22.8875 15.6441C22.7975 15.5144 22.6655 15.4495 22.4795 15.4495C22.1273 15.4495 21.9266 15.709 21.9266 16.1671V16.179H22.9982V16.1406C22.9982 15.8956 22.9698 15.7667 22.8875 15.6441Z" fill="#8D8D92"/>
<path d="M12.0926 22.7873H12.0498C11.4078 22.7873 11.1884 22.8995 11.1884 23.2919C11.1884 23.5505 11.3588 23.7243 11.5945 23.7243C11.7677 23.7243 11.9401 23.641 12.0781 23.4976L12.0926 22.7873Z" fill="#8D8D92"/>
<path d="M22.8658 21.685C22.7758 21.5561 22.6448 21.4903 22.4571 21.4903C22.1057 21.4903 21.9051 21.7499 21.9051 22.2088V22.2207H22.9756V22.1823C22.9756 21.9373 22.9489 21.8075 22.8658 21.685Z" fill="#8D8D92"/>
<path fill-rule="evenodd" clip-rule="evenodd" d="M28.2516 0.928589H0.733398V26.6429H28.2516V0.928589ZM6.3578 7.67591L7.30479 7.46933C7.34593 7.65032 7.36733 7.95941 7.36733 8.27575V8.9348C7.36733 8.99813 7.36179 9.07435 7.35756 9.13262C7.35494 9.16867 7.35282 9.19785 7.35282 9.21285C7.59453 8.99983 7.99487 8.85646 8.35485 8.85646C8.80392 8.85646 9.16299 9.03732 9.27441 9.32802C9.34383 9.51462 9.36345 9.62445 9.36345 9.94238V12.2535H8.45836V10.0321C8.45836 9.70297 8.36242 9.58031 8.09844 9.58031C7.8696 9.58031 7.57387 9.70859 7.36731 9.88397V12.2535H6.42802V8.43104C6.42802 8.12032 6.39979 7.81285 6.3578 7.67591ZM2.48406 8.5154V7.76596H5.94479L5.78624 8.5154H4.63947V12.2529H3.65735V8.5154H2.48406ZM10.4189 9.32241C10.7086 9.01809 11.061 8.87546 11.5315 8.87546C11.9377 8.87546 12.3251 9.00606 12.5548 9.22549C12.8788 9.53541 13.0237 9.97984 13.0237 10.671V10.8712H10.9795V10.8976C10.9795 11.4078 11.2477 11.6976 11.7243 11.6976C12.0414 11.6976 12.3389 11.5888 12.6226 11.3685L12.9825 11.886C12.5737 12.1951 12.1451 12.3431 11.6489 12.3431C10.6323 12.3431 9.97677 11.6713 9.97677 10.6342C9.97677 10.0383 10.107 9.64515 10.4189 9.32241ZM17.4316 13.6164L18.3779 13.4097C18.4181 13.5915 18.4404 13.8998 18.4404 14.2161V14.8744C18.4404 14.9394 18.4347 15.0169 18.4305 15.0751C18.4279 15.1101 18.4259 15.1381 18.4259 15.1522C18.6684 14.9392 19.0677 14.7967 19.4277 14.7967C19.8769 14.7967 20.2361 14.9785 20.3466 15.2676C20.4152 15.4566 20.4357 15.5656 20.4357 15.882V18.1939H19.5315V15.9717C19.5315 15.6441 19.4356 15.5207 19.1725 15.5207C18.9436 15.5207 18.6461 15.6497 18.4404 15.8251V18.194H17.5002V14.3724C17.5002 14.0617 17.4727 13.7533 17.4316 13.6164ZM3.59712 18.232L2.44943 13.7063L3.47193 13.7059L3.88596 15.475C4.07966 16.3151 4.14215 16.9534 4.14215 16.9534C4.16187 16.7796 4.24508 16.1397 4.38993 15.5207L4.81757 13.7059H5.87509L6.31922 15.7145C6.40836 16.1342 6.52579 16.9029 6.52579 16.9029C6.53864 16.7603 6.69033 15.8498 6.78717 15.4102L7.18215 13.7063H8.19776L7.03741 18.232H5.98062L5.55119 16.4052C5.4072 15.8046 5.33691 15.224 5.32491 15.1023C5.32491 15.1023 5.2418 15.7342 5.09524 16.3933L4.695 18.232H3.59712ZM16.258 13.8881C16.258 13.8881 16.258 13.8881 16.258 13.8881ZM16.258 13.8881L15.3178 14.1074C15.2836 14.3512 15.2836 14.5656 15.2836 14.8865V14.8883H14.9314V15.4809H15.2836V17.2764C15.2836 17.5783 15.2904 17.6431 15.3453 17.7865C15.4558 18.078 15.8296 18.2709 16.2992 18.2709C16.5409 18.2709 16.7817 18.2254 17.0517 18.1213L16.9343 17.6064C16.7689 17.6504 16.6857 17.6703 16.6025 17.6703C16.2845 17.6703 16.2023 17.5606 16.2023 17.141V15.4809H16.7964L17.032 14.8883H16.2023C16.2023 14.5519 16.2229 14.19 16.258 13.8881ZM24.4674 15.0186L25.2962 14.8103C25.3793 14.9465 25.4273 15.0963 25.4418 15.2821C25.5738 15.1147 25.7933 14.9345 25.9673 14.8624C26.0436 14.8312 26.167 14.8104 26.2699 14.8104C26.4087 14.8104 26.4711 14.8232 26.616 14.8817L26.3616 15.644C26.2699 15.5992 26.1952 15.5801 26.0923 15.5801C25.8841 15.5801 25.6964 15.6697 25.5258 15.8571V18.1947H24.5986V15.986C24.5986 15.5415 24.5437 15.2052 24.4674 15.0186ZM12.2655 15.0119C12.6101 14.8749 12.9074 14.8173 13.2322 14.8173C13.8254 14.8173 14.2342 15.0239 14.373 15.3915C14.4202 15.5269 14.4406 15.6292 14.4338 15.9856L14.4141 17.0973V17.1549C14.4141 17.5089 14.475 17.6435 14.745 17.8317L14.2546 18.3611C14.0404 18.277 13.8467 18.1296 13.7568 17.9606C13.6873 18.0239 13.6119 18.0904 13.5425 18.1361C13.3702 18.2514 13.1217 18.3162 12.8329 18.3162C12.0434 18.3162 11.6156 17.9414 11.6156 17.2831C11.6156 16.5079 12.1891 16.1475 13.3144 16.1475H13.3175C13.3857 16.1475 13.4475 16.1475 13.521 16.153V16.0169C13.521 15.6501 13.4464 15.5268 13.1079 15.5268C12.8114 15.5268 12.4652 15.6638 12.0855 15.9033L11.6912 15.2817C11.8789 15.1712 12.0153 15.1072 12.2655 15.0119ZM8.59029 15.2636C8.88171 14.9593 9.23317 14.8177 9.70285 14.8177C10.1108 14.8177 10.4982 14.9465 10.7253 15.1652C11.0519 15.476 11.1967 15.9228 11.1967 16.6124V16.8109H9.15091V16.839C9.15091 17.3484 9.42087 17.6382 9.89655 17.6382C10.2154 17.6382 10.511 17.5285 10.7947 17.3091L11.1548 17.8272C10.7468 18.1363 10.3182 18.2845 9.82022 18.2845C8.8054 18.2845 8.14886 17.6126 8.14886 16.5739C8.14886 15.9788 8.28003 15.5864 8.59029 15.2636ZM21.3532 15.2636C21.6438 14.9593 21.9961 14.8177 22.4658 14.8177C22.8737 14.8177 23.2603 14.9465 23.4891 15.1652C23.8131 15.476 23.958 15.9228 23.958 16.6124V16.8109H21.9129V16.839C21.9129 17.3484 22.182 17.6382 22.6586 17.6382C22.9765 17.6382 23.2739 17.5285 23.5576 17.3091L23.9168 17.8272C23.5097 18.1363 23.0811 18.2845 22.5831 18.2845C21.5683 18.2845 20.9118 17.6126 20.9118 16.5739C20.9118 15.9788 21.043 15.5864 21.3532 15.2636ZM6.56578 19.6571L7.51382 19.4505C7.55324 19.6323 7.57455 19.9414 7.57455 20.2594V20.9161C7.57455 20.98 7.56934 21.0565 7.56537 21.1148C7.56292 21.1508 7.56094 21.1798 7.56094 21.1948C7.80177 20.981 8.20274 20.8384 8.56186 20.8384C9.01187 20.8384 9.36937 21.0194 9.48079 21.3101C9.55107 21.4983 9.57162 21.6064 9.57162 21.9243V24.2348H8.66563V22.0132C8.66563 21.6849 8.56977 21.5624 8.3075 21.5624C8.07952 21.5624 7.78114 21.6905 7.57458 21.8659V24.2348H6.63529V20.4132C6.63529 20.1025 6.60692 19.7932 6.56578 19.6571ZM24.55 19.6577L25.4961 19.4574C25.5304 19.6384 25.545 19.853 25.545 20.3159V22.8922C25.545 23.46 25.552 23.5378 25.606 23.6283C25.6411 23.6852 25.7181 23.718 25.7935 23.718C25.8287 23.718 25.8485 23.718 25.8965 23.706L26.0551 24.2224C25.8965 24.2801 25.7035 24.3121 25.5038 24.3121C25.1087 24.3121 24.7926 24.1383 24.6811 23.8597C24.6109 23.6931 24.5971 23.5898 24.5971 23.1189V20.6523C24.5971 20.2206 24.5843 19.9557 24.55 19.6577ZM2.9531 20.6908C3.32763 20.0389 4.01838 19.6512 4.79233 19.6512L4.79136 19.652C5.26792 19.652 5.74455 19.7945 6.00767 20.0076L5.57325 20.6195C5.33069 20.4521 5.07523 20.3681 4.8061 20.3681C4.48042 20.3681 4.16322 20.5155 3.99095 20.7549C3.80496 21.0128 3.72186 21.3883 3.72186 21.9105C3.72186 22.5231 3.77592 22.8658 3.92161 23.1109C4.11535 23.4409 4.43238 23.6146 4.84806 23.6146C5.13004 23.6146 5.38718 23.5377 5.67002 23.3255L6.11235 23.8927C5.73178 24.1826 5.32555 24.3115 4.77873 24.3115C4.11532 24.3115 3.6036 24.1129 3.2102 23.6925C2.8228 23.2865 2.6292 22.7442 2.6292 22.0851C2.6292 21.5237 2.73369 21.0776 2.9531 20.6908ZM13.7283 21.0644L14.5494 20.8451C14.6325 20.9805 14.6814 21.1229 14.6814 21.2582C14.6941 21.25 14.7067 21.2419 14.7191 21.2338C14.8406 21.1548 14.95 21.0837 15.0885 21.0125C15.2745 20.9228 15.5162 20.8715 15.7236 20.8715C16.1178 20.8715 16.4632 21.0645 16.5729 21.3496C16.6218 21.4722 16.6432 21.6139 16.6432 21.8205V24.2349H15.7304V22.0847C15.7304 21.7107 15.6611 21.6011 15.4194 21.6011C15.2334 21.6011 14.9925 21.7188 14.7766 21.8982V24.235H13.8499V21.8397C13.8499 21.5554 13.8106 21.2847 13.7283 21.0644ZM17.3332 21.0644L18.1568 20.8451C18.2382 20.9805 18.2862 21.1229 18.2862 21.2582C18.299 21.25 18.3115 21.2419 18.324 21.2338C18.4463 21.1548 18.5565 21.0837 18.6934 21.0125C18.8811 20.9228 19.1237 20.8715 19.3285 20.8715C19.7228 20.8715 20.0689 21.0645 20.1786 21.3496C20.2292 21.4722 20.2481 21.6139 20.2481 21.8205V24.2349H19.3362V22.0847C19.3362 21.7107 19.2667 21.6011 19.025 21.6011C18.839 21.6011 18.5965 21.7188 18.3831 21.8982V24.235H17.4565V21.8397C17.4565 21.5554 17.4155 21.2847 17.3332 21.0644ZM10.8482 21.0525C11.1936 20.9156 11.4901 20.858 11.8158 20.858C12.408 20.858 12.817 21.0638 12.9542 21.433C13.003 21.5676 13.0253 21.6725 13.0167 22.0256L12.997 23.1372V23.1949C12.997 23.5505 13.0586 23.685 13.3286 23.8724L12.8375 24.4026C12.6233 24.3185 12.4295 24.1695 12.3404 24.0013C12.271 24.067 12.1947 24.1311 12.1261 24.1767C11.953 24.2937 11.7045 24.3569 11.414 24.3569C10.6263 24.3569 10.1977 23.9822 10.1977 23.3247C10.1977 22.5494 10.772 22.1873 11.8982 22.1873C11.9668 22.1873 12.0292 22.1874 12.1055 22.1939V22.0593C12.1055 21.6901 12.0293 21.5676 11.6899 21.5676C11.3924 21.5676 11.0471 21.7036 10.6683 21.9431L10.2731 21.3226C10.4608 21.212 10.5996 21.1486 10.8482 21.0525ZM21.3317 21.3045C21.6222 20.9994 21.9745 20.8585 22.4442 20.8585C22.8513 20.8585 23.2396 20.9882 23.4667 21.2084C23.7915 21.5175 23.9364 21.9637 23.9364 22.6532V22.8534H21.8914V22.8799C21.8914 23.3884 22.1614 23.6799 22.6379 23.6799C22.9559 23.6799 23.2525 23.5694 23.5353 23.3499L23.8952 23.8672C23.4872 24.1771 23.0596 24.3254 22.5616 24.3254C21.5459 24.3254 20.8902 23.6535 20.8902 22.6156C20.8902 22.0205 21.0214 21.6264 21.3317 21.3045Z" fill="#8D8D92"/>
</svg>
